# xmcd CD database file
#
# Track frame offsets:
#	150
#	14696
#	32094
#	51769
#	67764
#	91039
#	112695
#	135657
#	155706
#	176351
#
# Disc length: 2617 seconds
#
# Revision: 0
# Processed by: cddbd v1.5.2PL0 Copyright (c) Steve Scherf et al.
# Submitted via: CDex 1.70beta2
#
DISCID=730a370a
DTITLE=Jeff Healey Band - Super Hits
DYEAR=2008
DGENRE=Blues
TTITLE0=Confidence Man
TTITLE1=Hell To Pay
TTITLE2=Angel Eyes
TTITLE3=Highway 49
TTITLE4=While My Guitar Gently Weeps
TTITLE5=House That Love Built
TTITLE6=Lost In Your Eyes
TTITLE7=See The Light
TTITLE8=Cruel Little Number
TTITLE9=Angel
EXTD=YEAR: 2008
EXTT0=
EXTT1=
EXTT2=
EXTT3=
EXTT4=
EXTT5=
EXTT6=
EXTT7=
EXTT8=
EXTT9=
PLAYORDER=
